<mxfile host="65bd71144e">
    <diagram id="-PJH_V5Nxh4AXeN80Zko" name="Page-1">
        <mxGraphModel dx="1710" dy="433" grid="1" gridSize="10" guides="1" tooltips="1" connect="1" arrows="1" fold="1" page="1" pageScale="1" pageWidth="850" pageHeight="1100" math="0" shadow="0">
            <root>
                <mxCell id="0"/>
                <mxCell id="1" parent="0"/>
                <mxCell id="4" value="" style="edgeStyle=none;html=1;" parent="1" source="2" edge="1">
                    <mxGeometry relative="1" as="geometry">
                        <mxPoint x="180" y="360" as="targetPoint"/>
                    </mxGeometry>
                </mxCell>
                <mxCell id="2" value="inicio" style="ellipse;whiteSpace=wrap;html=1;" parent="1" vertex="1">
                    <mxGeometry x="120" y="190" width="120" height="80" as="geometry"/>
                </mxCell>
                <mxCell id="8" value="" style="edgeStyle=none;html=1;" parent="1" source="6" target="7" edge="1">
                    <mxGeometry relative="1" as="geometry"/>
                </mxCell>
                <mxCell id="6" value="inicio,&lt;br&gt;fin" style="shape=parallelogram;perimeter=parallelogramPerimeter;whiteSpace=wrap;html=1;fixedSize=1;" parent="1" vertex="1">
                    <mxGeometry x="120" y="360" width="120" height="60" as="geometry"/>
                </mxCell>
                <mxCell id="10" value="" style="edgeStyle=none;html=1;" parent="1" source="7" target="9" edge="1">
                    <mxGeometry relative="1" as="geometry"/>
                </mxCell>
                <mxCell id="7" value="&lt;div style=&quot;color: rgb(187, 187, 187); background-color: rgb(18, 14, 22); font-family: &amp;quot;Droid Sans Mono&amp;quot;, &amp;quot;monospace&amp;quot;, monospace; font-size: 14px; line-height: 19px;&quot;&gt;&lt;div&gt;multiplo7 &lt;span style=&quot;color: #c678dd;&quot;&gt;=&lt;/span&gt; &lt;span style=&quot;color: #d19a66;&quot;&gt;0&lt;/span&gt;&lt;/div&gt;&lt;div&gt;multiplo9 &lt;span style=&quot;color: #c678dd;&quot;&gt;=&lt;/span&gt; &lt;span style=&quot;color: #d19a66;&quot;&gt;0&lt;/span&gt;&lt;/div&gt;&lt;div&gt;normales &lt;span style=&quot;color: #c678dd;&quot;&gt;=&lt;/span&gt; &lt;span style=&quot;color: #d19a66;&quot;&gt;0&lt;/span&gt;&lt;/div&gt;&lt;/div&gt;" style="whiteSpace=wrap;html=1;" parent="1" vertex="1">
                    <mxGeometry x="120" y="500" width="120" height="60" as="geometry"/>
                </mxCell>
                <mxCell id="12" value="" style="edgeStyle=none;html=1;" parent="1" source="9" target="11" edge="1">
                    <mxGeometry relative="1" as="geometry"/>
                </mxCell>
                <mxCell id="27" value="" style="edgeStyle=none;html=1;" parent="1" source="9" target="26" edge="1">
                    <mxGeometry relative="1" as="geometry"/>
                </mxCell>
                <mxCell id="9" value="&lt;div style=&quot;color: rgb(187, 187, 187); background-color: rgb(18, 14, 22); font-family: &amp;quot;Droid Sans Mono&amp;quot;, &amp;quot;monospace&amp;quot;, monospace; font-size: 14px; line-height: 19px;&quot;&gt;&lt;span style=&quot;color: #c678dd;&quot;&gt;for&lt;/span&gt; i &lt;span style=&quot;color: #c678dd;&quot;&gt;in&lt;/span&gt; &lt;span style=&quot;color: #56b6c2;&quot;&gt;range&lt;/span&gt;(inicio,fin)&lt;/div&gt;" style="shape=trapezoid;perimeter=trapezoidPerimeter;whiteSpace=wrap;html=1;fixedSize=1;" parent="1" vertex="1">
                    <mxGeometry x="80" y="640" width="200" height="60" as="geometry"/>
                </mxCell>
                <mxCell id="14" value="" style="edgeStyle=none;html=1;" parent="1" source="11" target="13" edge="1">
                    <mxGeometry relative="1" as="geometry"/>
                </mxCell>
                <mxCell id="16" value="" style="edgeStyle=none;html=1;" parent="1" source="11" target="15" edge="1">
                    <mxGeometry relative="1" as="geometry"/>
                </mxCell>
                <mxCell id="11" value="&lt;div style=&quot;color: rgb(187, 187, 187); background-color: rgb(18, 14, 22); font-family: &amp;quot;Droid Sans Mono&amp;quot;, &amp;quot;monospace&amp;quot;, monospace; font-size: 14px; line-height: 19px;&quot;&gt;i &lt;span style=&quot;color: #c678dd;&quot;&gt;%&lt;/span&gt; &lt;span style=&quot;color: #d19a66;&quot;&gt;7&lt;/span&gt; &lt;span style=&quot;color: #c678dd;&quot;&gt;==&lt;/span&gt; &lt;span style=&quot;color: #d19a66;&quot;&gt;0&lt;/span&gt;&lt;/div&gt;" style="rhombus;whiteSpace=wrap;html=1;" parent="1" vertex="1">
                    <mxGeometry x="130" y="750" width="100" height="80" as="geometry"/>
                </mxCell>
                <mxCell id="28" style="edgeStyle=none;html=1;entryX=1;entryY=0.5;entryDx=0;entryDy=0;" edge="1" parent="1" source="13" target="9">
                    <mxGeometry relative="1" as="geometry">
                        <Array as="points">
                            <mxPoint x="500" y="790"/>
                            <mxPoint x="500" y="670"/>
                        </Array>
                    </mxGeometry>
                </mxCell>
                <mxCell id="13" value="&lt;div style=&quot;color: rgb(187, 187, 187); background-color: rgb(18, 14, 22); font-family: &amp;quot;Droid Sans Mono&amp;quot;, &amp;quot;monospace&amp;quot;, monospace; font-size: 14px; line-height: 19px;&quot;&gt;multiplo7 &lt;span style=&quot;color: #c678dd;&quot;&gt;=&lt;/span&gt; multiplo7&lt;span style=&quot;color: #c678dd;&quot;&gt;+&lt;/span&gt;&lt;span style=&quot;color: #d19a66;&quot;&gt;1&lt;/span&gt;&lt;/div&gt;" style="whiteSpace=wrap;html=1;" parent="1" vertex="1">
                    <mxGeometry x="310" y="760" width="120" height="60" as="geometry"/>
                </mxCell>
                <mxCell id="20" value="" style="edgeStyle=none;html=1;" parent="1" source="15" target="19" edge="1">
                    <mxGeometry relative="1" as="geometry"/>
                </mxCell>
                <mxCell id="22" value="" style="edgeStyle=none;html=1;" parent="1" source="15" target="21" edge="1">
                    <mxGeometry relative="1" as="geometry"/>
                </mxCell>
                <mxCell id="15" value="&lt;div style=&quot;color: rgb(187, 187, 187); background-color: rgb(18, 14, 22); font-family: &amp;quot;Droid Sans Mono&amp;quot;, &amp;quot;monospace&amp;quot;, monospace; font-size: 14px; line-height: 19px;&quot;&gt;&lt;div style=&quot;line-height: 19px;&quot;&gt;i &lt;span style=&quot;color: #c678dd;&quot;&gt;%&lt;/span&gt; &lt;span style=&quot;color: #d19a66;&quot;&gt;9&lt;/span&gt; &lt;span style=&quot;color: #c678dd;&quot;&gt;==&lt;/span&gt; &lt;span style=&quot;color: #d19a66;&quot;&gt;0&lt;/span&gt;&lt;/div&gt;&lt;/div&gt;" style="rhombus;whiteSpace=wrap;html=1;" parent="1" vertex="1">
                    <mxGeometry x="130" y="910" width="100" height="80" as="geometry"/>
                </mxCell>
                <mxCell id="24" style="edgeStyle=none;html=1;entryX=1;entryY=0.5;entryDx=0;entryDy=0;" parent="1" source="19" target="9" edge="1">
                    <mxGeometry relative="1" as="geometry">
                        <Array as="points">
                            <mxPoint x="370" y="1060"/>
                            <mxPoint x="500" y="1060"/>
                            <mxPoint x="500" y="670"/>
                        </Array>
                    </mxGeometry>
                </mxCell>
                <mxCell id="19" value="&lt;span style=&quot;color: rgb(187, 187, 187); font-family: &amp;quot;Droid Sans Mono&amp;quot;, &amp;quot;monospace&amp;quot;, monospace; font-size: 14px; background-color: rgb(18, 14, 22);&quot;&gt;multiplo9&amp;nbsp;&lt;/span&gt;&lt;span style=&quot;font-family: &amp;quot;Droid Sans Mono&amp;quot;, &amp;quot;monospace&amp;quot;, monospace; font-size: 14px; background-color: rgb(18, 14, 22); color: rgb(198, 120, 221);&quot;&gt;=&lt;/span&gt;&lt;span style=&quot;color: rgb(187, 187, 187); font-family: &amp;quot;Droid Sans Mono&amp;quot;, &amp;quot;monospace&amp;quot;, monospace; font-size: 14px; background-color: rgb(18, 14, 22);&quot;&gt;&amp;nbsp;multiplo9&lt;/span&gt;&lt;span style=&quot;font-family: &amp;quot;Droid Sans Mono&amp;quot;, &amp;quot;monospace&amp;quot;, monospace; font-size: 14px; background-color: rgb(18, 14, 22); color: rgb(198, 120, 221);&quot;&gt;+&lt;/span&gt;&lt;span style=&quot;font-family: &amp;quot;Droid Sans Mono&amp;quot;, &amp;quot;monospace&amp;quot;, monospace; font-size: 14px; background-color: rgb(18, 14, 22); color: rgb(209, 154, 102);&quot;&gt;1&lt;/span&gt;" style="whiteSpace=wrap;html=1;" parent="1" vertex="1">
                    <mxGeometry x="310" y="920" width="120" height="60" as="geometry"/>
                </mxCell>
                <mxCell id="25" style="edgeStyle=none;html=1;entryX=1;entryY=0.5;entryDx=0;entryDy=0;" parent="1" source="21" target="9" edge="1">
                    <mxGeometry relative="1" as="geometry">
                        <mxPoint x="330" y="740" as="targetPoint"/>
                        <Array as="points">
                            <mxPoint x="500" y="1060"/>
                            <mxPoint x="500" y="670"/>
                        </Array>
                    </mxGeometry>
                </mxCell>
                <mxCell id="21" value="&lt;div style=&quot;color: rgb(187, 187, 187); background-color: rgb(18, 14, 22); font-family: &amp;quot;Droid Sans Mono&amp;quot;, &amp;quot;monospace&amp;quot;, monospace; font-size: 14px; line-height: 19px;&quot;&gt;&lt;div&gt;normales &lt;span style=&quot;color: #c678dd;&quot;&gt;=&lt;/span&gt; normales&lt;span style=&quot;color: #c678dd;&quot;&gt;+&lt;/span&gt;&lt;span style=&quot;color: #d19a66;&quot;&gt;1&lt;/span&gt;&lt;/div&gt;&lt;br&gt;&lt;/div&gt;" style="whiteSpace=wrap;html=1;" parent="1" vertex="1">
                    <mxGeometry x="120" y="1030" width="120" height="60" as="geometry"/>
                </mxCell>
                <mxCell id="26" value="multiplos7, multiplos9" style="shape=document;whiteSpace=wrap;html=1;boundedLbl=1;" parent="1" vertex="1">
                    <mxGeometry x="-160" y="630" width="120" height="80" as="geometry"/>
                </mxCell>
            </root>
        </mxGraphModel>
    </diagram>
</mxfile>